<svg width="39" height="34" viewBox="0 0 39 34" fill="none" xmlns="http://www.w3.org/2000/svg">
<g clip-path="url(#clip0_211_2052)">
<path d="M38.5803 13.9503C38.5842 13.9212 38.5842 13.8919 38.5803 13.8629C38.584 13.8392 38.584 13.8151 38.5803 13.7914L38.2966 11.7501C38.2557 11.5058 38.1463 11.2776 37.9807 11.0908L37.932 11.0352L37.843 10.9478L32.9332 6.80164L33.0709 6.93668C32.9582 6.80451 32.8168 6.69879 32.6569 6.62731C32.4971 6.55583 32.3229 6.5204 32.1473 6.52364H30.6565C30.4141 6.51894 30.1772 6.5945 29.984 6.73811C29.7812 6.59536 29.537 6.52019 29.2873 6.52364H27.7965C27.601 6.52054 27.4081 6.56811 27.2374 6.66156C27.0667 6.75501 26.9242 6.89102 26.8243 7.05582C26.6703 7.29119 26.6125 7.57479 26.6622 7.85011L26.8486 9.13685C26.7251 9.06824 26.5854 9.03264 26.4435 9.03361H19.2246C18.9656 9.0352 18.7126 9.10962 18.4954 9.24805C18.2855 9.37691 18.1169 9.56141 18.0093 9.78022L17.4503 9.3116C17.2303 9.11201 16.9398 9.00383 16.6401 9.00977H5.31357C5.05365 9.01441 4.7995 9.0856 4.57631 9.21629C4.27097 9.3915 4.04719 9.67639 3.95245 10.0106L0.355175 21.8058C0.287961 22.0001 0.281349 22.2097 0.336186 22.4078C0.391022 22.6058 0.504824 22.7834 0.663053 22.9178C0.704282 22.9521 0.747573 22.9839 0.792687 23.0131C0.792687 23.0131 0.719758 22.9654 0.679248 22.9257L5.58906 27.0799C5.79675 27.2673 6.0683 27.3721 6.35059 27.3737H17.7663C18.027 27.3671 18.2813 27.2931 18.5036 27.1593C18.6293 27.0919 18.7417 27.0032 18.8357 26.8971L18.8763 26.8415L18.9411 26.7621L18.9897 26.6748L19.5244 27.1275C19.7291 27.3075 19.9948 27.4066 20.2698 27.4055H31.7097C31.9702 27.397 32.224 27.3232 32.447 27.1911C32.5699 27.1196 32.6817 27.0313 32.7792 26.9289L32.8197 26.8733L32.8845 26.7939C32.919 26.7437 32.9489 26.6905 32.9736 26.635C33.0001 26.5869 33.0218 26.5364 33.0385 26.4842L36.3198 15.7136V15.6183C36.3238 15.5813 36.3238 15.544 36.3198 15.5071V15.4356C36.3237 15.4119 36.3237 15.3878 36.3198 15.3641C36.3234 15.3139 36.3234 15.2634 36.3198 15.2132H37.373C37.4646 15.2214 37.5569 15.2214 37.6485 15.2132H37.7214C37.7807 15.1958 37.8378 15.1718 37.8916 15.1417H37.9726L38.1184 15.0305L38.1832 14.9828L38.2966 14.8398V14.7922L38.3777 14.6572C38.3731 14.6309 38.3731 14.604 38.3777 14.5778C38.3734 14.5649 38.3734 14.5509 38.3777 14.538C38.3949 14.4915 38.4085 14.4436 38.4182 14.395C38.4144 14.3794 38.4144 14.363 38.4182 14.3474C38.4142 14.3237 38.4142 14.2996 38.4182 14.2759C38.4182 14.2759 38.5803 13.9661 38.5803 13.9503Z" fill="black"/>
<path d="M16.9723 9.9153C17.0153 9.95343 17.0453 10.0036 17.0584 10.059C17.0714 10.1143 17.0668 10.1723 17.0452 10.2251L13.4561 22.0123C13.4109 22.141 13.3184 22.2486 13.1968 22.3142C13.0978 22.3791 12.9833 22.4174 12.8646 22.4254H1.45705C1.35963 22.4208 1.26733 22.3812 1.19778 22.3142C1.15641 22.2766 1.12737 22.2279 1.11438 22.1742C1.10139 22.1204 1.10505 22.0641 1.12487 22.0123L4.72214 10.2251C4.76358 10.0948 4.85314 9.98428 4.97329 9.9153C5.07388 9.85506 5.18787 9.81963 5.30548 9.81203H16.713C16.8097 9.81295 16.9024 9.84987 16.9723 9.9153ZM11.0173 19.6374L13.1644 12.6H7.15274L5.0138 19.6374H11.0173ZM27.8613 10.0344C27.9002 10.0788 27.9489 10.1139 28.0036 10.1373C28.0583 10.1607 28.1177 10.1717 28.1773 10.1695H29.66C29.7164 10.17 29.772 10.1564 29.8217 10.13C29.8713 10.1036 29.9132 10.0652 29.9435 10.0185C29.9698 9.98207 29.9885 9.94077 29.9982 9.8971C30.0079 9.85344 30.0086 9.80831 30.0002 9.76438L29.7086 7.66745C29.6808 7.5704 29.6309 7.48079 29.5628 7.40534C29.5238 7.36099 29.4752 7.32583 29.4205 7.30245C29.3658 7.27907 29.3064 7.26809 29.2468 7.27031H27.7641C27.7076 7.26977 27.652 7.28334 27.6024 7.30975C27.5528 7.33615 27.5108 7.37452 27.4805 7.42123C27.4238 7.53243 27.3995 7.60391 27.4238 7.66745L27.7236 9.76438C27.739 9.86648 27.7872 9.9611 27.8613 10.0344ZM32.5686 7.65157C32.5408 7.55451 32.4909 7.4649 32.4227 7.38945C32.3854 7.34527 32.3382 7.31011 32.2848 7.2867C32.2315 7.26328 32.1733 7.25223 32.1149 7.25442H30.6241C30.5686 7.25287 30.5136 7.26608 30.4651 7.29265C30.4166 7.31921 30.3764 7.35816 30.3486 7.40534C30.2947 7.4758 30.2714 7.56432 30.2838 7.65157L30.5836 9.74849C30.6024 9.84952 30.6501 9.94319 30.7213 10.0185C30.7609 10.062 30.8097 10.0966 30.8643 10.1199C30.9188 10.1432 30.9778 10.1547 31.0373 10.1536H32.5281C32.5835 10.1543 32.638 10.1407 32.6863 10.1142C32.7347 10.0878 32.7751 10.0493 32.8035 10.0027C32.8317 9.96713 32.8514 9.92585 32.8612 9.88187C32.8711 9.83789 32.8707 9.79232 32.8602 9.74849L32.5686 7.65157ZM26.5569 10.8287L26.411 9.79615H19.2246C19.1118 9.80225 19.0026 9.83791 18.9086 9.8994C18.849 9.93131 18.797 9.97552 18.7565 10.029C18.7159 10.0825 18.6877 10.144 18.6737 10.2092L18.0742 12.179C18.0502 12.2282 18.042 12.2835 18.0507 12.3373C18.0594 12.3912 18.0845 12.4412 18.1228 12.4809C18.1911 12.5438 18.2803 12.5805 18.3739 12.5841H27.1079L24.9608 19.6215H16.2512C16.1389 19.624 16.0295 19.657 15.9353 19.7168C15.8207 19.7882 15.737 19.8985 15.7003 20.0266L15.0926 21.9965C15.0728 22.047 15.0676 22.1019 15.0776 22.1552C15.0876 22.2085 15.1124 22.2579 15.1493 22.2983C15.2155 22.3654 15.3054 22.4052 15.4005 22.4094H26.8405C26.9588 22.3995 27.0728 22.3613 27.1726 22.2983C27.2923 22.2324 27.382 22.1246 27.4238 21.9965L30.7132 11.2259H27.0106C26.9519 11.227 26.8935 11.2163 26.8392 11.1945C26.7848 11.1726 26.7357 11.14 26.6947 11.0988C26.6277 11.0267 26.5803 10.9393 26.5569 10.8446V10.8287Z" fill="white"/>
</g>
<defs>
<clipPath id="clip0_211_2052">
<rect width="38.2838" height="20.8821" fill="white" transform="translate(0.299408 6.52344)"/>
</clipPath>
</defs>
</svg>
