<svg width="34" height="34" viewBox="0 0 34 34" fill="none" xmlns="http://www.w3.org/2000/svg">
<g clip-path="url(#clip0_211_2049)">
<path fill-rule="evenodd" clip-rule="evenodd" d="M10.0459 10.0835L3.09509 16.9645C4.48538 18.3408 6.07357 19.5007 7.80514 20.4082C8.28376 21.665 9.03398 22.8437 10.0558 23.8552C13.9001 27.6608 20.1329 27.6608 23.9772 23.8552C24.999 22.8437 25.7492 21.665 26.2278 20.4081C27.9594 19.5007 29.5476 18.3408 30.9379 16.9645L23.9927 10.0891C23.9875 10.084 23.9824 10.0789 23.9772 10.0737C20.1329 6.26807 13.9001 6.26807 10.0558 10.0737C10.0525 10.077 10.0492 10.0803 10.0459 10.0835ZM23.3121 21.6496C21.2865 22.3263 19.1602 22.6729 17.0165 22.6729C14.8728 22.6729 12.7465 22.3263 10.721 21.6496C10.9404 21.9379 11.1827 22.2145 11.4479 22.477C14.5234 25.5216 19.5096 25.5216 22.585 22.477C22.8502 22.2145 23.0926 21.9379 23.3121 21.6496ZM11.5907 11.314C12.113 11.6556 12.6683 11.9479 13.2494 12.1862C14.4437 12.6759 15.7237 12.928 17.0165 12.928C18.3092 12.928 19.5893 12.6759 20.7836 12.1862C21.3647 11.9479 21.92 11.6556 22.4423 11.314C19.4053 8.45328 14.6277 8.45329 11.5907 11.314Z" fill="#3B4158"/>
</g>
<defs>
<clipPath id="clip0_211_2049">
<rect width="27.8428" height="19.4899" fill="white" transform="translate(3.09509 7.21948)"/>
</clipPath>
</defs>
</svg>
