<svg width="37" height="34" viewBox="0 0 37 34" fill="none" xmlns="http://www.w3.org/2000/svg">
<g clip-path="url(#clip0_211_2076)">
<path d="M8.81748 10.0038C7.40395 10.0038 6.04833 10.5653 5.04882 11.5648L1.78684 14.8268C0.787323 15.8263 0.225803 17.1819 0.225803 18.5955C0.225803 21.539 2.61199 23.9252 5.55551 23.9252C6.96905 23.9252 8.32466 23.3636 9.32417 22.3641L11.5805 20.1078C11.5805 20.1077 11.5806 20.1078 11.5805 20.1078L18.1547 13.5336C18.6321 13.0562 19.2795 12.7881 19.9546 12.7881C21.0848 12.7881 22.043 13.5247 22.3752 14.544L24.45 12.4692C23.5035 10.9868 21.8439 10.0038 19.9546 10.0038C18.5411 10.0038 17.1854 10.5653 16.1859 11.5648L7.35541 20.3954C6.87805 20.8727 6.23061 21.1409 5.55551 21.1409C4.1497 21.1409 3.01008 20.0013 3.01008 18.5955C3.01008 17.9204 3.27826 17.2729 3.75562 16.7956L7.01758 13.5336C7.49495 13.0562 8.14239 12.7881 8.81748 12.7881C9.94776 12.7881 10.9059 13.5247 11.2381 14.5441L13.313 12.4693C12.3665 10.9868 10.7068 10.0038 8.81748 10.0038Z" fill="#394149"/>
<path d="M18.4925 20.3954C18.0152 20.8727 17.3677 21.1409 16.6926 21.1409C15.5625 21.1409 14.6044 20.4045 14.2721 19.3853L12.1974 21.46C13.1439 22.9423 14.8035 23.9252 16.6926 23.9252C18.1062 23.9252 19.4618 23.3636 20.4613 22.3641L29.2918 13.5336C29.7692 13.0562 30.4166 12.7881 31.0917 12.7881C32.4975 12.7881 33.6371 13.9277 33.6371 15.3335C33.6371 16.0086 33.369 16.656 32.8916 17.1334L29.6296 20.3954C29.1523 20.8727 28.5048 21.1409 27.8297 21.1409C26.6996 21.1409 25.7414 20.4043 25.4091 19.385L23.3344 21.4598C24.2809 22.9422 25.9405 23.9252 27.8297 23.9252C29.2433 23.9252 30.5989 23.3636 31.5984 22.3641L34.8604 19.1022C35.8599 18.1026 36.4214 16.747 36.4214 15.3335C36.4214 12.39 34.0353 10.0038 31.0917 10.0038C29.6782 10.0038 28.3226 10.5653 27.3231 11.5648L18.4925 20.3954Z" fill="#394149"/>
</g>
<defs>
<clipPath id="clip0_211_2076">
<rect width="36.1956" height="13.9214" fill="white" transform="translate(0.225803 10.0038)"/>
</clipPath>
</defs>
</svg>
