<svg width="34" height="34" viewBox="0 0 34 34" fill="none" xmlns="http://www.w3.org/2000/svg">
<g clip-path="url(#clip0_211_2072)">
<path d="M30.0806 8.50296C30.0806 8.82732 30.3468 9.09027 30.6752 9.09027H31.2697C31.5981 9.09027 31.8643 8.82732 31.8643 8.50296C31.8643 8.1786 31.5981 7.91565 31.2697 7.91565H30.6752C30.3468 7.91565 30.0806 8.1786 30.0806 8.50296Z" fill="#212326"/>
<path d="M12.8384 26.7095H15.7267L14.8858 25.8789C14.6628 25.6587 14.3604 25.5349 14.045 25.5349H12.8384C8.24126 25.5349 4.51456 21.8537 4.51456 17.3126C4.51456 12.7715 8.24126 9.09027 12.8384 9.09027H22.3513C26.9485 9.09027 30.6752 12.7715 30.6752 17.3126C30.6752 21.8537 26.9485 25.5349 22.3513 25.5349H18.7927C18.3197 25.5349 17.866 25.3493 17.5315 25.0189L16.5464 24.0458C15.9889 23.4951 15.2327 23.1857 14.4443 23.1857H12.8384C9.55471 23.1857 6.8928 20.5562 6.8928 17.3126C6.8928 14.069 9.55471 11.4395 12.8384 11.4395H22.3513C25.635 11.4395 28.2969 14.069 28.2969 17.3126C28.2969 20.5562 25.635 23.1857 22.3513 23.1857H20.0664C19.5933 23.1857 19.1396 23 18.8051 22.6696L17.82 21.6965C17.2625 21.1458 16.5063 20.8364 15.7179 20.8364H12.8384C10.8682 20.8364 9.27103 19.2587 9.27103 17.3126C9.27103 15.3664 10.8682 13.7887 12.8384 13.7887H22.3513C24.3215 13.7887 25.9187 15.3664 25.9187 17.3126C25.9187 19.235 24.3602 20.7979 22.4233 20.8357L22.4229 20.8364H21.5528C21.0797 20.8364 20.626 20.6508 20.2915 20.3204L19.3064 19.3473C18.849 18.8954 18.2578 18.606 17.6247 18.5167L17.5949 18.4872H12.8384C12.1817 18.4872 11.6493 17.9613 11.6493 17.3126C11.6493 16.6639 12.1817 16.138 12.8384 16.138H22.3513C23.0081 16.138 23.5405 16.6639 23.5405 17.3126C23.5405 17.9613 23.0081 18.4872 22.3513 18.4872H19.9731L20.814 19.3178C21.0369 19.5381 21.3394 19.6618 21.6548 19.6618H22.3513C23.6648 19.6618 24.7296 18.61 24.7296 17.3126C24.7296 16.0152 23.6648 14.9634 22.3513 14.9634H12.8384C11.5249 14.9634 10.4602 16.0152 10.4602 17.3126C10.4602 18.61 11.5249 19.6618 12.8384 19.6618H17.2043C17.6774 19.6618 18.1311 19.8475 18.4656 20.1779L19.4507 21.151C20.0082 21.7017 20.7643 22.0111 21.5528 22.0111H22.6486V22.002C25.1371 21.8505 27.1078 19.8088 27.1078 17.3126C27.1078 14.7177 24.9782 12.6141 22.3513 12.6141H12.8384C10.2115 12.6141 8.08191 14.7177 8.08191 17.3126C8.08191 19.9075 10.2115 22.0111 12.8384 22.0111H15.7179C16.191 22.0111 16.6447 22.1967 16.9792 22.5271L17.9643 23.5002C18.5218 24.0509 19.2779 24.3603 20.0664 24.3603H22.3513C26.2917 24.3603 29.4861 21.2049 29.4861 17.3126C29.4861 13.4202 26.2917 10.2649 22.3513 10.2649H12.8384C8.89798 10.2649 5.70368 13.4202 5.70368 17.3126C5.70368 21.2049 8.89798 24.3603 12.8384 24.3603H14.4443C14.9173 24.3603 15.371 24.5459 15.7055 24.8763L16.6907 25.8494C17.2482 26.4001 18.0043 26.7095 18.7927 26.7095H22.3513C27.6052 26.7095 31.8643 22.5024 31.8643 17.3126C31.8643 12.1228 27.6052 7.91565 22.3513 7.91565L12.8384 7.91565C7.58453 7.91565 3.32544 12.1228 3.32544 17.3126C3.32544 22.5024 7.58453 26.7095 12.8384 26.7095Z" fill="#212326"/>
</g>
<defs>
<clipPath id="clip0_211_2072">
<rect width="28.5388" height="18.7939" fill="white" transform="translate(3.32544 7.91565)"/>
</clipPath>
</defs>
</svg>
