<svg width="34" height="34" viewBox="0 0 34 34" fill="none" xmlns="http://www.w3.org/2000/svg">
<g clip-path="url(#clip0_211_2056)">
<path d="M31.7851 9.7008C31.7851 9.72434 31.7851 9.75376 31.779 9.77141C31.7484 10.0009 31.7484 10.2304 31.7667 10.4657C31.779 10.5246 31.7913 10.5834 31.8403 10.6305C31.92 10.7188 32.0426 10.7011 32.0917 10.5952C32.1162 10.5422 32.1162 10.4893 32.1039 10.4363C32.0426 10.2127 32.0304 9.97736 32.0242 9.74787C32.0242 9.73611 32.0242 9.71845 32.0242 9.7008C32.0917 9.69492 32.153 9.68903 32.2081 9.68903C32.2511 9.68315 32.2879 9.67726 32.3185 9.65961C32.4105 9.61254 32.4105 9.51251 32.3124 9.46543C32.2756 9.44778 32.2266 9.44189 32.1837 9.44189C32.0304 9.44778 31.8771 9.44778 31.7238 9.44778C31.6687 9.44778 31.6135 9.45367 31.5583 9.45955C31.5276 9.46543 31.4908 9.46543 31.4664 9.48309C31.4234 9.50074 31.3989 9.53016 31.3989 9.57135C31.405 9.61254 31.4234 9.63607 31.4664 9.65373C31.4908 9.67138 31.5215 9.67726 31.5522 9.67726C31.6257 9.68315 31.7055 9.69492 31.7851 9.7008ZM33.4711 9.97147C33.4711 9.97736 33.4772 9.98324 33.4772 9.98324C33.5018 10.1421 33.5263 10.2951 33.5447 10.4481C33.5508 10.501 33.5569 10.5481 33.5937 10.5893C33.6734 10.6893 33.7961 10.6776 33.8512 10.5717C33.8757 10.5187 33.8819 10.4657 33.8696 10.4069C33.8328 10.2304 33.8144 10.0539 33.7776 9.88321C33.7531 9.77729 33.7225 9.67726 33.6918 9.58312C33.6734 9.52428 33.6305 9.48308 33.5569 9.4772C33.4834 9.46543 33.4282 9.50074 33.3975 9.5537C33.3608 9.60077 33.3301 9.64784 33.3056 9.7008C33.2627 9.79495 33.2259 9.8891 33.1768 9.97736C33.1707 10.0009 33.1646 10.0185 33.1523 10.0362C33.1462 10.0244 33.1401 10.0185 33.1401 10.0185C33.0603 9.87144 32.9868 9.72434 32.9071 9.58312C32.8948 9.57135 32.8887 9.55958 32.8825 9.54781C32.8458 9.49486 32.8029 9.46543 32.7354 9.46543C32.6741 9.47132 32.625 9.50662 32.5944 9.55958C32.5821 9.58312 32.5821 9.60077 32.576 9.62431C32.5515 9.8126 32.5208 10.0009 32.4963 10.1892C32.484 10.2951 32.4779 10.401 32.4779 10.5069C32.4718 10.5305 32.4779 10.5599 32.4902 10.5834C32.5024 10.6305 32.5392 10.6599 32.5883 10.6658C32.6496 10.6717 32.6925 10.654 32.7109 10.607C32.7293 10.5717 32.7354 10.5422 32.7415 10.5128C32.7661 10.4069 32.7844 10.3069 32.8029 10.2068C32.8151 10.148 32.8212 10.1009 32.8396 10.0362C32.8519 10.0597 32.8641 10.0774 32.8764 10.095C32.9316 10.1657 32.9868 10.2363 33.0542 10.2951C33.1217 10.3422 33.1768 10.3363 33.232 10.2833C33.2443 10.2716 33.2504 10.2657 33.2627 10.2539C33.3178 10.1715 33.3853 10.0892 33.4404 10.0068C33.4527 9.99501 33.4589 9.98324 33.4711 9.97147Z" fill="#3A3B7B"/>
<path d="M19.3449 9.81635C19.3023 9.92817 19.2941 10.0087 19.3138 10.0757C19.3355 10.1668 19.3919 10.1966 19.4685 10.1734C20.1886 10.0025 21.7677 10.4876 22.3523 10.6228C22.4902 10.6512 22.6023 10.4804 22.5083 10.3272C22.3709 10.1789 20.7926 9.54388 20.1903 9.50926C19.9543 9.49645 19.5322 9.43835 19.3449 9.81635Z" fill="#3A3B7B"/>
<path d="M25.5162 7.76071C25.5929 7.80323 25.6358 7.84378 25.657 7.8891C25.6885 7.94853 25.6719 7.98966 25.6189 8.01064C25.1429 8.23362 24.5095 9.19356 24.2538 9.52463C24.1918 9.60079 24.0489 9.55653 24.0273 9.43129C24.0317 9.28968 24.5932 8.24793 24.9066 7.96419C25.0297 7.85341 25.2332 7.63605 25.5162 7.76071Z" fill="#3A3B7B"/>
<path d="M21.7254 7.2882C21.8176 7.22151 21.9134 7.19814 21.9624 7.24148C22.6806 7.83098 23.0614 8.76451 23.2972 9.61913C23.3061 9.63904 23.3067 9.66761 23.2996 9.69742C23.2966 9.72289 23.2772 9.7498 23.2464 9.77063C23.2135 9.79362 23.1852 9.80062 23.1719 9.78081C22.8571 9.3699 21.0593 7.77112 21.7254 7.2882Z" fill="#3A3B7B"/>
<path d="M6.51689 17.5086C6.68901 17.3856 6.87615 17.2832 7.07417 17.2037C7.28135 17.1469 7.50218 17.1563 7.70328 17.2306C7.90434 17.3049 8.07479 17.44 8.18873 17.6156C8.29066 17.7906 8.33053 17.9928 8.30239 18.1915C8.27426 18.3902 8.17962 18.5748 8.03268 18.7174C7.91878 18.833 7.78946 18.9337 7.64818 19.0169C7.01846 19.4074 6.38313 19.7764 5.74783 20.1669C5.61783 20.2646 5.47993 20.3523 5.33543 20.429C5.11565 20.5342 4.86447 20.5624 4.62533 20.5086C4.38619 20.455 4.17413 20.3227 4.02581 20.1348C3.91494 20.0018 3.82137 19.8563 3.74717 19.7016C3.1453 18.4874 2.52115 17.2786 1.94157 16.043C1.67407 15.5082 1.45673 14.8931 1.24496 14.2994C1.15334 14.1269 1.13545 13.9269 1.19509 13.7419C1.25474 13.5569 1.38722 13.4016 1.56436 13.3089C1.74149 13.2163 1.9493 13.1936 2.14359 13.2457C2.33788 13.2978 2.50332 13.4206 2.60473 13.588C2.91644 13.9856 3.19236 14.4079 3.42952 14.8503C4.03138 15.92 4.60539 16.9898 5.18497 18.0274C5.21872 18.0848 5.25593 18.1401 5.29642 18.1932C5.73265 18.0172 6.14295 17.787 6.51689 17.5086Z" fill="#3A3B7B"/>
<path d="M12.7398 17.1355C11.3633 18.6812 9.05617 18.2908 7.89702 16.3011C7.07223 14.889 6.92734 12.557 8.72182 11.0861C9.10501 10.7782 9.56321 10.5684 10.0537 10.4764C10.6551 10.3936 11.2684 10.4954 11.8058 10.7673C12.3433 11.0392 12.7775 11.4671 13.0464 11.99C14.0272 13.7016 13.8878 15.8839 12.7398 17.1355ZM12.1825 13.5305C12.0363 13.1099 11.7429 12.7508 11.3522 12.5142C11.1311 12.3629 10.8624 12.2894 10.5914 12.306C10.3204 12.3225 10.0636 12.4282 9.86424 12.6051C9.06734 13.2844 8.90012 14.8944 9.4797 15.8518C9.55359 16.0079 9.66206 16.1467 9.79764 16.2583C9.93322 16.37 10.0926 16.4519 10.2646 16.4982C10.4366 16.5446 10.617 16.5543 10.7934 16.5268C10.9697 16.4991 11.1376 16.4349 11.2853 16.3385C11.7173 16.0171 12.0342 15.5744 12.192 15.0722C12.3499 14.5699 12.3407 14.0329 12.1659 13.5358L12.1825 13.5305Z" fill="#3A3B7B"/>
<path d="M18.3572 14.2043C18.2163 14.2334 18.0707 14.2352 17.9291 14.2094C17.7875 14.1837 17.6526 14.1311 17.5325 14.0546C17.4274 13.9969 17.3369 13.9176 17.2675 13.8223C17.1982 13.727 17.1518 13.6182 17.1315 13.5036C17.1113 13.389 17.1177 13.2716 17.1504 13.1597C17.1831 13.0478 17.2413 12.9442 17.3207 12.8565C17.4591 12.6801 17.6554 12.5538 17.878 12.4981C18.4591 12.3363 19.0573 12.2376 19.6613 12.2039C19.794 12.1891 19.9285 12.1999 20.0568 12.2356C20.1851 12.2714 20.3047 12.3314 20.4085 12.4121C20.5123 12.4928 20.5983 12.5927 20.6614 12.7057C20.7245 12.8187 20.7634 12.9428 20.7759 13.0704C20.95 13.6976 20.9691 14.3551 20.8316 14.9906C20.3301 17.0445 18.6025 17.7505 16.6631 17.0926C16.1187 16.9167 15.6414 16.589 15.2922 16.1513C14.8264 15.6241 14.4962 14.9994 14.3281 14.3274C14.1919 13.7289 14.2068 13.1079 14.3716 12.5161C14.5364 11.9244 14.8463 11.379 15.2755 10.9256C15.6827 10.4328 16.2113 10.045 16.8136 9.79702C17.1942 9.59568 17.6395 9.53844 18.0619 9.63656C18.1577 9.66201 18.2447 9.7116 18.3138 9.78019C18.3829 9.84879 18.4317 9.93388 18.455 10.0266C18.4783 10.1194 18.4753 10.2165 18.4464 10.3078C18.4174 10.3991 18.3636 10.4813 18.2904 10.5458C18.1512 10.6667 18 10.7742 17.839 10.8668C17.3435 11.1696 16.9124 11.5598 16.5684 12.0167C16.3429 12.3124 16.1876 12.6519 16.1134 13.0114C16.0393 13.3708 16.0481 13.7415 16.1393 14.0974C16.2657 14.5826 16.5461 15.0181 16.9417 15.3436C18.1678 16.4134 19.7616 15.381 19.483 13.9209C19.0762 14.0172 18.7195 14.1188 18.3572 14.2043Z" fill="#3A3B7B"/>
<path d="M25.8473 17.2211C24.0361 18.2908 21.9742 17.2211 21.5227 14.9747C21.1939 13.3701 21.8181 11.1236 24.0027 10.2678C24.4675 10.0896 24.9716 10.0271 25.4683 10.0859C26.0651 10.1908 26.6126 10.4728 27.0335 10.8921C27.4544 11.3115 27.7276 11.847 27.8145 12.4233C28.1823 14.3328 27.3464 16.3707 25.8473 17.2211ZM26.477 13.6214C26.4765 13.1771 26.3127 12.7471 26.0145 12.4073C25.8551 12.1971 25.6246 12.0464 25.3624 11.9811C25.1002 11.9157 24.8225 11.9397 24.5767 12.0489C23.5958 12.4554 22.9048 13.9316 23.1556 15.0175C23.1748 15.1878 23.2324 15.3522 23.3246 15.4989C23.4168 15.6457 23.5414 15.7714 23.6895 15.8672C23.8375 15.9629 24.0056 16.0265 24.182 16.0534C24.3583 16.0803 24.5387 16.0699 24.7104 16.023C25.2289 15.8492 25.6778 15.5243 25.9944 15.0938C26.3112 14.6632 26.4799 14.1485 26.477 13.6214Z" fill="#3A3B7B"/>
<path d="M29.646 17.6704C29.6187 17.8661 29.5115 18.0434 29.3479 18.1633C29.1843 18.2832 28.9779 18.3358 28.7739 18.3095C28.5699 18.2833 28.3852 18.1803 28.2603 18.0233C28.1354 17.8664 28.0806 17.6682 28.108 17.4725C28.1353 17.2767 28.2426 17.0994 28.4061 16.9795C28.5697 16.8596 28.7761 16.807 28.9801 16.8333C29.1841 16.8595 29.3688 16.9624 29.4937 17.1194C29.6186 17.2764 29.6734 17.4746 29.646 17.6704ZM29.1612 10.455C29.2672 10.2996 29.4227 10.1813 29.6045 10.1177C29.7863 10.054 29.9846 10.0485 30.1699 10.1019C30.3583 10.1472 30.5247 10.2532 30.6414 10.4021C30.7581 10.5511 30.8179 10.734 30.8108 10.9203C30.7862 11.219 30.7397 11.5157 30.6715 11.8082C30.4876 12.7977 30.3092 13.7872 30.1142 14.766C30.025 15.1565 29.908 15.5309 29.7798 15.9267C29.7352 16.0504 29.6607 16.1622 29.5625 16.2529C29.5014 16.3212 29.4234 16.3736 29.3356 16.4052C29.2479 16.4368 29.1532 16.4467 29.0604 16.4339C28.9677 16.4211 28.8797 16.386 28.8048 16.332C28.7299 16.2779 28.6704 16.2066 28.6318 16.1246C28.5656 15.9775 28.5296 15.8194 28.5259 15.6592C28.5259 14.996 28.5259 14.3274 28.5705 13.6588C28.6463 12.7047 28.7953 11.7571 29.0163 10.824C29.0424 10.699 29.0914 10.5794 29.1612 10.471V10.455Z" fill="#3A3B7B"/>
<path fill-rule="evenodd" clip-rule="evenodd" d="M4.16236 21.9684C4.09656 22.1094 4.07851 22.2666 4.11067 22.4178C4.13206 22.6172 4.17904 22.8134 4.25055 23.0017C4.33982 23.2324 4.43972 23.4605 4.5629 23.7416C4.59123 23.8063 4.62083 23.8739 4.65181 23.9449C4.81791 24.3258 5.02634 24.8126 5.30435 25.517C5.38304 25.7171 5.45291 25.9189 5.52328 26.122C5.5517 26.2041 5.58023 26.2865 5.60943 26.369C5.7141 26.6624 5.8942 26.926 6.13293 27.135C6.2343 27.2498 6.36876 27.3335 6.51953 27.3753C6.67325 27.418 6.83673 27.4153 6.98881 27.3676C7.14089 27.3198 7.27446 27.2292 7.37219 27.1076C7.468 26.9884 7.52497 26.8447 7.53604 26.6946C7.5982 26.4022 7.57698 26.099 7.47454 25.817C7.31194 25.3489 7.12673 24.8802 6.91315 24.4217L6.91216 24.4197C6.5608 23.7023 6.20364 22.9899 5.82959 22.2773L5.82679 22.2723C5.71729 22.0866 5.57498 21.9206 5.40626 21.7818C5.29673 21.6579 5.14565 21.5743 4.9788 21.5455C4.80839 21.5161 4.63265 21.5457 4.48293 21.6292C4.3413 21.7068 4.22904 21.8256 4.16236 21.9684Z" fill="#3A3B7B"/>
<path fill-rule="evenodd" clip-rule="evenodd" d="M9.52891 20.2021C8.97798 20.0652 8.40261 20.0452 7.8429 20.1437C7.40938 20.1846 6.983 20.2806 6.68693 20.4707C6.53635 20.5675 6.4146 20.6917 6.34688 20.8496C6.27879 21.0084 6.27009 21.19 6.3259 21.3923C6.42778 21.7629 6.56009 22.1232 6.69193 22.4824L6.71329 22.5406L6.71381 22.5418C7.11078 23.5853 7.51154 24.6252 7.91595 25.6615C7.96311 25.8248 8.0298 25.9824 8.11467 26.131L8.11626 26.1337C8.22838 26.3183 8.37219 26.4834 8.54161 26.6221C8.62634 26.6984 8.73112 26.7511 8.84474 26.7747C8.95947 26.7985 9.07879 26.7916 9.1897 26.7547C9.30065 26.7179 9.39889 26.6525 9.47376 26.5657C9.54741 26.4803 9.59565 26.3775 9.61336 26.268C9.68645 25.9706 9.66304 25.6589 9.5462 25.3746C9.50974 25.279 9.48114 25.1812 9.451 25.0783C9.44095 25.044 9.43076 25.0091 9.42001 24.9735C10.3457 24.6262 11.3307 24.1592 11.677 23.0729C11.8127 22.6975 11.824 22.2909 11.7094 21.9091C11.5947 21.5268 11.3594 21.1879 11.0359 20.9392C10.5956 20.591 10.0812 20.3394 9.52891 20.2021ZM8.0018 21.5346C8.02003 21.5296 8.0384 21.5249 8.05681 21.5205C8.65948 21.4296 9.27606 21.5508 9.79306 21.8616C10.0209 22.0137 10.1142 22.1827 10.1303 22.3453C10.1468 22.5127 10.0834 22.6941 9.95598 22.8684C9.71524 23.1978 9.27592 23.4615 8.87909 23.5106C8.58979 22.8712 8.29601 22.2059 8.0018 21.5346Z" fill="#3A3B7B"/>
<path d="M13.2018 19.0316C13.8579 18.7408 14.6706 18.6906 15.3066 18.895C15.4667 18.9398 15.6057 19.0367 15.6997 19.169C15.793 19.3005 15.8361 19.4591 15.8217 19.6175C15.8208 19.7204 15.7945 19.8216 15.745 19.9129C15.6946 20.0058 15.6217 20.0857 15.5323 20.1459C15.4429 20.2061 15.3398 20.2447 15.2316 20.2586C15.1234 20.2724 15.0133 20.261 14.9106 20.2254L14.9028 20.2227L14.8955 20.219C14.8429 20.1926 14.7871 20.1727 14.7294 20.1598L14.7258 20.159C14.2784 20.045 13.8564 20.2339 13.7023 20.4661C13.6288 20.5768 13.6197 20.6886 13.6809 20.7902C13.7465 20.8991 13.9073 21.0213 14.2327 21.1083C14.3222 21.1319 14.4139 21.1547 14.507 21.1778C14.7643 21.2418 15.0317 21.3082 15.2903 21.4003L15.2913 21.4006C16.4843 21.8363 16.9285 22.7385 16.7765 23.5872C16.626 24.4264 15.8958 25.1902 14.7976 25.3703C14.398 25.4554 13.9822 25.4388 13.5912 25.3223C13.1993 25.2055 12.846 24.9923 12.5665 24.7038L12.5592 24.6963C12.4709 24.5876 12.4116 24.4599 12.3853 24.3244C12.3611 24.2022 12.3738 24.0758 12.422 23.9603C12.4698 23.8454 12.5508 23.746 12.6552 23.6735C12.7656 23.5914 12.8986 23.5421 13.0378 23.5319C13.1766 23.5216 13.3154 23.5506 13.4373 23.6151C13.559 23.6715 13.6721 23.7435 13.7738 23.8291L13.7757 23.8307C13.9554 23.9884 14.1729 24.0295 14.3814 23.9915C14.593 23.9528 14.7919 23.8327 14.9199 23.6732C15.047 23.5148 15.0981 23.3266 15.0375 23.144C14.9766 22.9599 14.7933 22.7538 14.3907 22.5814C14.2854 22.5385 14.1763 22.5039 14.0628 22.4703C14.0322 22.4612 14.001 22.4521 13.9695 22.443C13.8856 22.4185 13.7992 22.3933 13.7145 22.3656C13.6562 22.3465 13.5984 22.3284 13.5411 22.3105C13.3844 22.2615 13.2318 22.2138 13.0848 22.1498C12.765 22.0453 12.4887 21.8446 12.297 21.5775C12.1046 21.3093 12.0077 20.9886 12.0209 20.6632C12.0219 19.8703 12.5423 19.324 13.2018 19.0316Z" fill="#3A3B7B"/>
<path d="M21.5196 18.9472C21.3924 18.8876 21.2517 18.8593 21.1103 18.8648C20.9688 18.8704 20.831 18.9097 20.7094 18.9792C20.5885 19.0482 20.4872 19.1448 20.4147 19.2605C20.3482 19.3579 20.3022 19.4668 20.2792 19.5811C20.2563 19.6954 20.2568 19.8129 20.2808 19.9269C20.3045 20.0734 20.3308 20.2159 20.3567 20.3564C20.3997 20.589 20.4414 20.8163 20.469 21.0481L20.47 21.0539C20.5328 21.4174 20.5657 21.785 20.5686 22.1534L20.5689 22.1587C20.5903 22.5565 20.4491 22.9466 20.1755 23.2462L20.1711 23.2515C20.0821 23.361 19.963 23.4446 19.8273 23.4929C19.6916 23.5412 19.5445 23.5523 19.4026 23.525C19.2606 23.4976 19.1295 23.433 19.0236 23.3381C18.9178 23.2433 18.8415 23.1217 18.8034 22.9877C18.7221 22.7053 18.675 22.4147 18.6631 22.1219L18.802 19.9995C18.804 19.9718 18.8064 19.9433 18.8088 19.9146C18.814 19.8502 18.8195 19.7845 18.8217 19.7233C18.825 19.6332 18.8222 19.5405 18.8003 19.4528C18.7779 19.3631 18.7353 19.2779 18.6598 19.2052C18.585 19.1333 18.4841 19.0803 18.3571 19.0442C18.1273 18.9804 17.9331 18.9824 17.7713 19.0483C17.6093 19.1143 17.4984 19.2367 17.4199 19.378C17.3419 19.5183 17.2919 19.6842 17.254 19.8505C17.2259 19.9739 17.2034 20.1034 17.1819 20.2266C17.1745 20.2691 17.1672 20.3108 17.1599 20.3513L17.1597 20.3525C17.0449 21.0286 17.0108 21.715 17.0579 22.3985C17.0667 22.7678 17.1469 23.1324 17.2946 23.4736C17.4612 23.9138 17.763 24.2953 18.1601 24.5676C18.5581 24.8404 19.0329 24.9907 19.5219 24.9987C20.0109 25.0066 20.4908 24.8718 20.8981 24.6121C21.3048 24.3527 21.62 23.981 21.802 23.5461C22.0566 22.9922 22.1761 22.3897 22.1515 21.7847C22.1365 21.343 22.1115 20.8979 22.0865 20.455C22.0743 20.2378 22.0621 20.021 22.0512 19.8056C22.0456 19.5895 21.9714 19.3803 21.8384 19.2059C21.7561 19.0957 21.6466 19.0068 21.5196 18.9472Z" fill="#3A3B7B"/>
<path d="M26.0222 22.2752C26.0093 22.2909 25.9957 22.3072 25.9815 22.3241C25.878 21.7512 25.7821 21.1785 25.6861 20.6049C25.6517 20.3991 25.617 20.1924 25.5822 19.9863L25.5783 19.9633L25.5656 19.9435C25.5416 19.9061 25.5392 19.8694 25.5392 19.7912V19.7822L25.5378 19.7733C25.5118 19.6118 25.4357 19.4616 25.3195 19.3422C25.2036 19.2231 25.053 19.1403 24.8874 19.1043C24.7221 19.0652 24.5484 19.0738 24.3881 19.1291C24.2283 19.1843 24.089 19.2835 23.9876 19.4143C23.9033 19.5146 23.8341 19.6259 23.7824 19.7448C23.6648 20.001 23.5462 20.2578 23.4273 20.5153L23.4253 20.5198C23.1285 21.1627 22.8296 21.8098 22.5395 22.4621L22.5386 22.4642C22.3605 22.8872 22.2135 23.3328 22.067 23.7771C22.0377 23.8658 22.0084 23.9544 21.9789 24.0428C21.926 24.183 21.9029 24.332 21.9109 24.4808C21.9012 24.6141 21.9345 24.747 22.0061 24.8617C22.0792 24.9787 22.1887 25.0707 22.3192 25.1249C22.4574 25.1831 22.612 25.1954 22.7584 25.16C22.9045 25.1246 23.0342 25.0437 23.1272 24.9299C23.2459 24.7898 23.348 24.6369 23.4313 24.475C23.6771 23.9924 23.912 23.504 24.1458 23.0177C24.2363 22.8296 24.3242 22.6611 24.4242 22.4777C24.4311 22.5003 24.4381 22.5224 24.4454 22.5445C24.5502 22.9874 24.7271 23.4117 24.9696 23.8017C25.0155 23.8844 25.0795 23.9566 25.157 24.0134C25.2356 24.071 25.3262 24.1113 25.4226 24.1318C25.519 24.1523 25.6189 24.1524 25.7154 24.1321C25.8117 24.1118 25.9026 24.0714 25.9812 24.0142L26.1367 23.9024L27.3436 22.9268L27.2722 23.3633C27.1742 23.9633 27.077 24.5584 26.9737 25.1535C26.9061 25.4173 26.9062 25.6929 26.974 25.9566C27.0034 26.105 27.0781 26.2416 27.1888 26.349C27.3004 26.4574 27.4433 26.5309 27.5991 26.5603C27.7548 26.5896 27.9161 26.5734 28.0621 26.5136C28.2059 26.4547 28.3283 26.3563 28.4138 26.2308C28.6128 25.9939 28.7367 25.707 28.7707 25.4043C28.8219 24.9769 28.8798 24.5437 28.9377 24.1106C29.0044 23.6114 29.0711 23.1124 29.1274 22.6229L29.1276 22.6214C29.1818 22.0856 29.208 21.5476 29.2062 21.0093C29.218 20.8392 29.1739 20.6697 29.0799 20.5249C28.9855 20.3795 28.8458 20.2665 28.6806 20.2019C28.5088 20.1269 28.3165 20.1069 28.1319 20.1448C27.9486 20.1824 27.7826 20.2752 27.6581 20.4095C27.4355 20.6071 27.2267 20.8186 27.033 21.0425L27.0317 21.044C26.8202 21.2969 26.6102 21.5548 26.4015 21.811C26.2746 21.9668 26.1481 22.1222 26.0222 22.2752Z" fill="#3A3B7B"/>
</g>
<defs>
<clipPath id="clip0_211_2056">
<rect width="32.7153" height="20.186" fill="white" transform="translate(1.16048 7.21948)"/>
</clipPath>
</defs>
</svg>
