<svg width="28" height="28" viewBox="0 0 28 28" fill="none" xmlns="http://www.w3.org/2000/svg">
<path fill-rule="evenodd" clip-rule="evenodd" d="M6.97907 0.14978C10.8233 0.14978 13.9398 3.26619 13.9398 7.11048V0.14978H20.9005C24.7447 0.14978 27.8612 3.26619 27.8612 7.11048C27.8612 10.9547 24.7447 14.0712 20.9005 14.0712C24.7447 14.0712 27.8612 17.1876 27.8612 21.0319C27.8612 22.9407 27.0928 24.6701 25.8485 25.9276L25.8224 25.9538L25.7993 25.9768C24.5415 27.2229 22.8109 27.9926 20.9005 27.9926C19.003 27.9926 17.2829 27.2334 16.0273 26.0021C16.011 25.9861 15.9947 25.97 15.9785 25.9538C15.9632 25.9386 15.9481 25.9233 15.933 25.9079C14.7001 24.6521 13.9398 22.9307 13.9398 21.0319C13.9398 24.8761 10.8233 27.9926 6.97907 27.9926C3.13478 27.9926 0.0183716 24.8761 0.0183716 21.0319V14.0712H6.97907C3.13478 14.0712 0.0183716 10.9547 0.0183716 7.11048C0.0183716 3.26619 3.13478 0.14978 6.97907 0.14978ZM12.5476 7.11048C12.5476 10.1859 10.0545 12.679 6.97907 12.679V1.54192C10.0545 1.54192 12.5476 4.03505 12.5476 7.11048ZM26.469 21.0319C26.469 17.9564 23.9759 15.4633 20.9005 15.4633C17.825 15.4633 15.3319 17.9564 15.3319 21.0319H26.469ZM1.41051 15.4633V21.0319C1.41051 24.1073 3.90364 26.6004 6.97907 26.6004C10.0545 26.6004 12.5476 24.1073 12.5476 21.0319V15.4633H1.41051ZM15.3319 12.679V1.54192H20.9005C23.9759 1.54192 26.469 4.03505 26.469 7.11048C26.469 10.1859 23.9759 12.679 20.9005 12.679H15.3319Z" fill="#263238"/>
</svg>
